<?xml version="1.0" encoding="utf-8"?>
<!-- Generator: Adobe Illustrator 27.2.0, SVG Export Plug-In . SVG Version: 6.00 Build 0)  -->
<svg version="1.1" id="レイヤー_1" xmlns="http://www.w3.org/2000/svg" xmlns:xlink="http://www.w3.org/1999/xlink" x="0px"
	 y="0px" width="55px" height="54.6px" viewBox="0 0 55 54.6" style="enable-background:new 0 0 55 54.6;" xml:space="preserve">
<style type="text/css">
	.st0{fill:#282828;}
	.st1{fill:#FFFFFF;}
</style>
<g>
	<g>
		<path class="st0" d="M-1310.2-1861.4c3.2,0,3.2-5,0-5S-1313.5-1861.4-1310.2-1861.4L-1310.2-1861.4z"/>
	</g>
</g>
<g>
	<g>
		<g>
			<path class="st1" d="M15.2,38.2c10,9,18.6,7,16.5,0.2c7,3.6,12-2.4,8-7.6c0,0,4,2.9,6.6,0.9s2.2-5.5,0.9-7.6c0,0,2.1,1.8,4.2-1.4
				c3.9-5.9-6.3-20.7-21.6-20C25.3,2.9,24.6,8,24.6,8s-4.1-1.3-7.5,2.5c-2.6,2.9-1.3,5.5-1.3,5.5s-3.4-0.3-5.9,3.8s-0.4,7.7-0.4,7.7
				S4.1,29.6,3,35.8C1.1,46.8,9.4,52.3,9.4,52.3"/>
			<path class="st0" d="M7.8,54.6c-0.4-0.3-9.7-6.7-7.5-19.2c0.8-4.8,3.8-7.6,5.9-9.1c-0.5-2.2-0.4-5,1.5-7.9
				c1.6-2.5,3.5-3.8,5.2-4.5c0.1-1.6,0.7-3.4,2.3-5.2c2.4-2.7,5.3-3.5,7.6-3.6c1-2.4,3.2-4.9,7-5c10.9-0.5,19.5,6,23.2,12.7
				c2.5,4.4,2.7,8.6,0.8,11.6c-0.9,1.3-1.9,2.1-2.7,2.5c0.2,2.5-0.6,5.2-2.9,7c-1.3,1-2.8,1.4-4.2,1.3c-0.1,1.6-0.7,3.1-1.7,4.3
				c-1.8,2.2-4.6,3.1-7.6,2.7c-0.4,1.5-1.3,2.8-2.7,3.6c-4.4,2.8-11.6,0.6-18.5-5.6l3.6-4c5.6,5,10.5,6,12,5c0.6-0.4,0.4-1.3,0.2-2
				c-0.3-1,0-2.2,0.8-2.9c0.8-0.7,2-0.8,3-0.3c2.6,1.3,4.3,0.8,5-0.1c0.7-0.9,0.6-2.2-0.4-3.5c-0.8-1.1-0.7-2.6,0.2-3.5
				c0.9-1,2.4-1.1,3.5-0.3c1,0.7,2.7,1.4,3.3,0.9c1.8-1.5,0.3-4.1,0.3-4.1c-0.7-1.1-0.4-2.6,0.6-3.5c0.9-0.8,2.2-0.8,3.2-0.2
				c0.1-0.1,0.3-0.3,0.5-0.6c0.8-1.2,0.4-3.5-1-5.9c-2.9-5.2-9.7-10.3-18.3-9.9c-2.1,0.1-2.6,2.4-2.6,2.9c-0.1,0.8-0.6,1.5-1.2,1.9
				c-0.7,0.4-1.5,0.5-2.2,0.3c-0.2-0.1-2.6-0.6-4.7,1.7c-1.3,1.4-0.9,2.5-0.9,2.5c0.5,0.9,0.5,2-0.1,2.8c-0.6,0.8-1.5,1.3-2.5,1.1
				c-0.1,0-1.9,0.1-3.5,2.6c-1.6,2.5-0.5,4.7-0.4,4.9c0.4,0.7,0.5,1.5,0.2,2.3c-0.3,0.7-0.8,1.3-1.6,1.6c-0.1,0.1-4,1.7-4.8,6.2
				C4,45.4,10.8,50,10.9,50.1L7.8,54.6z M49,22C49,22,49,22.1,49,22C49,22.1,49,22,49,22z"/>
		</g>
		<g>
			<path class="st1" d="M18.8,29c3.5,1.7,9.9,6.3,12.5,9"/>
			<path class="st0" d="M29.4,39.9c-2.4-2.5-8.6-6.9-11.8-8.5l2.4-4.9c3.7,1.8,10.4,6.7,13.3,9.6L29.4,39.9z"/>
		</g>
		<g>
			<path class="st1" d="M22.6,18.6c6.5,3.1,15.8,10.1,19.1,14.8"/>
			<path class="st0" d="M39.5,34.9C36.5,30.7,27.7,24,21.4,21l2.3-4.9c7.1,3.3,16.7,10.8,20.2,15.6L39.5,34.9z"/>
		</g>
		<g>
			<path class="st1" d="M25.1,8.1c6.3,1.7,18.1,8.2,22.2,16"/>
			<path class="st0" d="M44.9,25.4c-3.5-6.8-14.3-13-20.5-14.7l1.4-5.2c7,1.9,19.5,8.8,23.9,17.4L44.9,25.4z"/>
		</g>
	</g>
</g>
</svg>
