<svg width="190" height="18" viewBox="0 0 190 18" fill="none" xmlns="http://www.w3.org/2000/svg">
<path d="M8.136 11.744V0.199999H10.248V11.84C10.248 15.296 8.112 17.192 5.352 17.192C2.256 17.192 0.672 15.104 0.264 12.8L2.4 12.344C2.76 14.072 3.744 15.176 5.352 15.176C7.008 15.176 8.136 14.192 8.136 11.744ZM16.9474 17L22.7554 0.199999H24.7714L30.5794 17H28.4674L26.9794 12.512H20.5474L19.0594 17H16.9474ZM21.2194 10.496H26.3074L23.7634 2.936L21.2194 10.496ZM37.8264 0.199999H40.4184L44.9064 12.032L49.3944 0.199999H51.9864V17H49.8744V4.76L45.6504 15.464H44.1624L39.9384 4.76V17H37.8264V0.199999ZM60.8139 0.199999H70.4619V2.216H62.9259V7.04H69.0219V9.056H62.9259V14.984H70.7019V17H60.8139V0.199999ZM87.1819 2.696L85.4779 3.8C84.6619 2.336 83.8219 2.024 82.8139 2.024C81.6139 2.024 80.7979 3.032 80.7979 4.112C80.7979 5.768 82.2619 6.464 84.0379 7.352C85.9339 8.312 88.0459 9.464 88.0459 12.176C88.0459 13.544 87.5659 14.72 86.7499 15.608C85.8379 16.616 84.4939 17.192 83.0059 17.192C80.2219 17.192 78.1339 15.272 77.5819 12.656L79.4059 11.552C79.9579 13.544 80.8459 15.176 83.0059 15.176C83.8699 15.176 84.7579 14.84 85.2859 14.216C85.6939 13.712 85.9339 12.992 85.9339 12.224C85.9339 10.592 84.3979 9.728 82.7659 8.96C80.5819 7.928 78.6859 6.872 78.6859 4.28C78.6859 1.784 80.6059 0.0079999 82.8139 0.0079999C85.1899 0.0079999 86.3659 1.112 87.1819 2.696ZM117.326 0.199999H119.438V17H117.326V9.08H109.646V17H107.534V0.199999H109.646V7.064H117.326V0.199999ZM126.607 17L132.415 0.199999H134.431L140.239 17H138.127L136.639 12.512H130.207L128.719 17H126.607ZM130.879 10.496H135.967L133.423 2.936L130.879 10.496ZM147.392 0.199999H149.504V14.984H157.136V17H147.392V0.199999ZM164.708 0.199999H166.82V17H164.708V0.199999ZM175.508 0.199999H178.1L182.588 12.032L187.076 0.199999H189.668V17H187.556V4.76L183.332 15.464H181.844L177.62 4.76V17H175.508V0.199999Z" fill="black"/>
</svg>
