<svg width="190" height="18" viewBox="0 0 190 18" fill="none" xmlns="http://www.w3.org/2000/svg">
<path d="M8.136 11.7939V0.249926H10.248V11.8899C10.248 15.3459 8.112 17.2419 5.352 17.2419C2.256 17.2419 0.672 15.1539 0.264 12.8499L2.4 12.3939C2.76 14.1219 3.744 15.2259 5.352 15.2259C7.008 15.2259 8.136 14.2419 8.136 11.7939ZM16.9474 17.0499L22.7554 0.249926H24.7714L30.5794 17.0499H28.4674L26.9794 12.5619H20.5474L19.0594 17.0499H16.9474ZM21.2194 10.5459H26.3074L23.7634 2.98593L21.2194 10.5459ZM37.8264 0.249926H40.4184L44.9064 12.0819L49.3944 0.249926H51.9864V17.0499H49.8744V4.80993L45.6504 15.5139H44.1624L39.9384 4.80993V17.0499H37.8264V0.249926ZM60.8139 0.249926H70.4619V2.26593H62.9259V7.08993H69.0219V9.10593H62.9259V15.0339H70.7019V17.0499H60.8139V0.249926ZM87.1819 2.74593L85.4779 3.84993C84.6619 2.38593 83.8219 2.07393 82.8139 2.07393C81.6139 2.07393 80.7979 3.08193 80.7979 4.16193C80.7979 5.81793 82.2619 6.51393 84.0379 7.40193C85.9339 8.36193 88.0459 9.51393 88.0459 12.2259C88.0459 13.5939 87.5659 14.7699 86.7499 15.6579C85.8379 16.6659 84.4939 17.2419 83.0059 17.2419C80.2219 17.2419 78.1339 15.3219 77.5819 12.7059L79.4059 11.6019C79.9579 13.5939 80.8459 15.2259 83.0059 15.2259C83.8699 15.2259 84.7579 14.8899 85.2859 14.2659C85.6939 13.7619 85.9339 13.0419 85.9339 12.2739C85.9339 10.6419 84.3979 9.77793 82.7659 9.00993C80.5819 7.97793 78.6859 6.92193 78.6859 4.32993C78.6859 1.83393 80.6059 0.0579267 82.8139 0.0579267C85.1899 0.0579267 86.3659 1.16193 87.1819 2.74593ZM117.326 0.249926H119.438V17.0499H117.326V9.12993H109.646V17.0499H107.534V0.249926H109.646V7.11393H117.326V0.249926ZM126.607 17.0499L132.415 0.249926H134.431L140.239 17.0499H138.127L136.639 12.5619H130.207L128.719 17.0499H126.607ZM130.879 10.5459H135.967L133.423 2.98593L130.879 10.5459ZM147.392 0.249926H149.504V15.0339H157.136V17.0499H147.392V0.249926ZM164.708 0.249926H166.82V17.0499H164.708V0.249926ZM175.508 0.249926H178.1L182.588 12.0819L187.076 0.249926H189.668V17.0499H187.556V4.80993L183.332 15.5139H181.844L177.62 4.80993V17.0499H175.508V0.249926Z" fill="white"/>
</svg>
