<svg width="464" height="464" viewBox="0 0 464 464" fill="none" xmlns="http://www.w3.org/2000/svg">
<g clip-path="url(#clip0_2013_19)">
<path d="M459 232C459 357.369 357.369 459 232 459C106.631 459 5 357.369 5 232C5 106.631 106.631 5 232 5C357.369 5 459 106.631 459 232Z" fill="#FED33D" stroke="#26103D" stroke-width="10"/>
<path d="M342.889 182.077L340.622 186.993L345.703 188.864C373.935 199.256 386.324 216.414 386.324 232C386.324 247.586 373.935 264.744 345.703 275.137L340.624 277.006L342.888 281.921C355.464 309.221 352.087 330.107 341.069 341.128C330.053 352.148 309.178 355.526 281.878 342.934L276.964 340.668L275.093 345.745C264.695 373.955 247.541 386.334 231.955 386.334C216.37 386.334 199.215 373.955 188.818 345.745L186.948 340.67L182.035 342.933C154.734 355.508 133.849 352.132 122.827 341.114C111.807 330.098 108.43 309.223 121.021 281.923L123.288 277.009L118.21 275.137C90.001 264.74 77.6211 247.585 77.6211 232C77.6211 216.415 90.001 199.26 118.21 188.863L123.285 186.992L121.022 182.08C108.447 154.779 111.823 133.894 122.841 122.872C133.858 111.852 154.733 108.475 182.033 121.066L186.947 123.333L188.818 118.255C199.215 90.0456 216.37 77.6658 231.955 77.6658C247.541 77.6658 264.695 90.0456 275.093 118.255L276.963 123.33L281.876 121.067C309.177 108.492 330.062 111.868 341.083 122.886C352.103 133.903 355.481 154.777 342.889 182.077Z" fill="#F8DCD8" stroke="#26103D" stroke-width="10"/>
</g>
<defs>
<clipPath id="clip0_2013_19">
<rect width="464" height="464" fill="white"/>
</clipPath>
</defs>
</svg>
